<?xml version="1.0" encoding="UTF-8"?>
<svg version="1.1" xmlns="http://www.w3.org/2000/svg" width="272" height="300">
<path d="M0 0 C0.99 0 1.98 0 3 0 C3.08636719 0.969375 3.17273438 1.93875 3.26171875 2.9375 C5.94665429 29.8037844 17.25343459 50.77063531 37.8125 68.3125 C69.00871289 91.82491661 107.48502138 99.14641288 145.32836914 103.76977539 C158.4395249 105.40644002 170.47054679 107.69579004 182.3125 113.875 C182.98982178 114.22304687 183.66714355 114.57109375 184.36499023 114.9296875 C201.66459058 124.00379389 213.31698824 140.41163263 219.37109375 158.84130859 C222.8923544 170.92787175 225.1835541 183.91037409 225.0625 196.5 C225.05347656 197.7271875 225.04445312 198.954375 225.03515625 200.21875 C225.01775391 201.59546875 225.01775391 201.59546875 225 203 C224.01 203 223.02 203 222 203 C222 202.34 222 201.68 222 201 C191.95027616 190.7790055 159.66378057 194.93335478 128.65795898 198.9465332 C115.4302771 200.65191471 102.33324309 201.21183412 89.00878906 201.24023438 C86.26857057 201.24993426 83.52910608 201.28106171 80.7890625 201.3125 C57.52877912 201.45025258 34.62563155 197.90396696 17.15234375 181.1953125 C4.33475324 168.12183543 -1.14486967 152.58904486 -1.16796875 134.359375 C-1.17129715 133.43715149 -1.17462555 132.51492798 -1.17805481 131.5647583 C-1.18310285 129.6182098 -1.18546379 127.6716527 -1.18530273 125.72509766 C-1.18748256 122.77361486 -1.20564267 119.82251021 -1.22460938 116.87109375 C-1.22754521 114.97135543 -1.22952873 113.07161535 -1.23046875 111.171875 C-1.23765427 110.30173767 -1.24483978 109.43160034 -1.25224304 108.53509521 C-1.23010909 102.48640342 -0.38101962 96.8852705 1 91 C3.84509049 93.6550641 4.71890294 95.67732381 5.8125 99.4375 C11.73473486 117.91665387 22.58305591 131.60713301 39.875 140.75 C41.57055314 141.52846151 43.27991429 142.27736044 45 143 C45.95390625 143.40734375 46.9078125 143.8146875 47.890625 144.234375 C61.84108895 149.6932522 77.11923295 152.58131547 92 154 C91.05640625 153.76925781 90.1128125 153.53851563 89.140625 153.30078125 C68.88159153 148.21346567 49.81928894 138.81279824 34 125 C34 124.34 34 123.68 34 123 C33.34 123 32.68 123 32 123 C32 122.34 32 121.68 32 121 C31.01 120.67 30.02 120.34 29 120 C29 119.34 29 118.68 29 118 C28.34 118 27.68 118 27 118 C24.09529303 114.51178678 21.57875379 110.73319589 19 107 C18.54109375 106.35675781 18.0821875 105.71351563 17.609375 105.05078125 C11.19798899 95.54055867 6.89364961 84.03320595 4 73 C3.67902344 71.94425781 3.35804687 70.88851562 3.02734375 69.80078125 C-0.87578984 55.36067105 -1.282145 40.5524316 -1.25 25.6875 C-1.24913391 24.92715454 -1.24826782 24.16680908 -1.24737549 23.38342285 C-1.22428696 15.5354424 -1.09100223 7.7865885 0 0 Z " fill="#529911" transform="translate(26,59)"/>
<path d="M0 0 C67.32 0 134.64 0 204 0 C204 56.29787234 204 56.29787234 203 82 C199.625 81.72265625 199.625 81.72265625 196 81 C194.6875 79.43359375 194.6875 79.43359375 194 77.4375 C190.61803721 69.50836034 185.52316548 64.74173784 177.8203125 61.0078125 C170.68903438 58.45951644 163.79155504 57.70016581 156.25756836 57.68115234 C155.32966492 57.67110672 154.40176147 57.6610611 153.44573975 57.65071106 C150.41044679 57.62007691 147.37524121 57.6028993 144.33984375 57.5859375 C142.22277586 57.56720993 140.10571531 57.54763535 137.98866272 57.5272522 C132.44036196 57.47609293 126.89203704 57.43638073 121.34362793 57.39910889 C115.67238468 57.35896731 110.00124051 57.30792143 104.33007812 57.2578125 C93.22011503 57.16124517 82.11011047 57.07778816 71 57 C71 70.2 71 83.4 71 97 C103.34 97 135.68 97 169 97 C169 111.85 169 126.7 169 142 C100.8617306 133.58786798 100.8617306 133.58786798 82 128 C80.49759766 127.57267578 80.49759766 127.57267578 78.96484375 127.13671875 C54.26569684 119.5906806 29.62333011 102.83569683 16.8359375 79.91333008 C15.68060707 77.64786244 14.57783839 75.36584206 13.5 73.0625 C13.11054199 72.23129639 12.72108398 71.40009277 12.31982422 70.54370117 C1.84425232 47.65595206 0 24.92821926 0 0 Z " fill="#1B50AB" transform="translate(27,10)"/>
<path d="M0 0 C3.18849203 0.14527735 6.37119135 0.14004152 9.5625 0.125 C10.7990332 0.13080078 10.7990332 0.13080078 12.06054688 0.13671875 C16.50201436 0.12961808 20.61615703 -0.21573451 25 -1 C27.3125 -0.4375 27.3125 -0.4375 29 1 C29.875 4 29.875 4 30 7 C29.34 7.66 28.68 8.32 28 9 C28.33 9.53625 28.66 10.0725 29 10.625 C30.2706326 13.64275242 30.33854923 15.74992741 30 19 C28.875 21.375 28.875 21.375 27 23 C22.91834173 23.51020728 21.47042703 23.31361802 18 21 C18 21.66 18 22.32 18 23 C15.20826945 23.02690104 12.41679652 23.04679053 9.625 23.0625 C8.8309375 23.07087891 8.036875 23.07925781 7.21875 23.08789062 C1.2265625 23.11328125 1.2265625 23.11328125 -1 22 C-2.11375 22.226875 -3.2275 22.45375 -4.375 22.6875 C-8 23 -8 23 -10.375 21.375 C-12.1094656 18.84001182 -12.66333088 17.03002206 -13 14 C-14.32 14 -15.64 14 -17 14 C-17 16.97 -17 19.94 -17 23 C-21.82380802 23.0246519 -26.64757967 23.04283693 -31.47143555 23.05493164 C-33.11369464 23.05997174 -34.75594923 23.06680378 -36.39819336 23.07543945 C-38.75375479 23.08751926 -41.10925709 23.09323139 -43.46484375 23.09765625 C-44.20339096 23.10281754 -44.94193817 23.10797882 -45.7028656 23.11329651 C-47.46898088 23.1134925 -49.23497146 23.06194719 -51 23 C-52 22 -52 22 -52.11352539 19.86694336 C-52.10828857 18.95050049 -52.10305176 18.03405762 -52.09765625 17.08984375 C-52.09443359 16.10048828 -52.09121094 15.11113281 -52.08789062 14.09179688 C-52.07951172 13.05087891 -52.07113281 12.00996094 -52.0625 10.9375 C-52.05798828 9.89271484 -52.05347656 8.84792969 -52.04882812 7.77148438 C-52.03699913 5.1809334 -52.02051689 2.59049441 -52 0 C-38 0 -24 0 -10 0 C-6.23753266 -1.25415578 -3.92620986 -0.57265399 0 0 Z M-45 6 C-45 6.66 -45 7.32 -45 8 C-44.01 8 -43.02 8 -42 8 C-42 7.34 -42 6.68 -42 6 C-42.99 6 -43.98 6 -45 6 Z M18 10 C18 10.99 18 11.98 18 13 C18.99 12.67 19.98 12.34 21 12 C20.01 11.34 19.02 10.68 18 10 Z M-45 13 C-45 14.32 -45 15.64 -45 17 C-44.01 17 -43.02 17 -42 17 C-42 15.68 -42 14.36 -42 13 C-42.99 13 -43.98 13 -45 13 Z " fill="#5A9A34" transform="translate(80,271)"/>
<path d="M0 0 C3.3125 0.8125 3.3125 0.8125 4.3125 1.8125 C4.45365161 4.48308851 4.35497107 7.13682238 4.3125 9.8125 C2.3325 9.8125 0.3525 9.8125 -1.6875 9.8125 C-1.3575 10.4725 -1.0275 11.1325 -0.6875 11.8125 C0.9625 11.8125 2.6125 11.8125 4.3125 11.8125 C4.6425 8.1825 4.9725 4.5525 5.3125 0.8125 C16.2025 0.8125 27.0925 0.8125 38.3125 0.8125 C38.3125 2.4625 38.3125 4.1125 38.3125 5.8125 C36.9925 6.1425 35.6725 6.4725 34.3125 6.8125 C34.3125 7.4725 34.3125 8.1325 34.3125 8.8125 C35.6325 8.8125 36.9525 8.8125 38.3125 8.8125 C38.3125 10.4625 38.3125 12.1125 38.3125 13.8125 C36.9925 13.8125 35.6725 13.8125 34.3125 13.8125 C34.3125 15.1325 34.3125 16.4525 34.3125 17.8125 C35.6325 17.8125 36.9525 17.8125 38.3125 17.8125 C38.3125 19.7925 38.3125 21.7725 38.3125 23.8125 C29.4025 23.8125 20.4925 23.8125 11.3125 23.8125 C10.9825 22.8225 10.6525 21.8325 10.3125 20.8125 C9.9825 21.8025 9.6525 22.7925 9.3125 23.8125 C-0.6875 23.8125 -0.6875 23.8125 -5.6875 22.8125 C-8.15961853 19.10432221 -8.05480992 16.1699099 -8.0625 11.875 C-8.08699219 11.15892578 -8.11148438 10.44285156 -8.13671875 9.70507812 C-8.15617374 6.20642281 -7.94685417 4.1763869 -5.89453125 1.296875 C-3.6875 -0.1875 -3.6875 -0.1875 0 0 Z " fill="#22459D" transform="translate(194.6875,270.1875)"/>
<path d="M0 0 C6.6 0 13.2 0 20 0 C20.33 0.66 20.66 1.32 21 2 C21.33 1.34 21.66 0.68 22 0 C23.98 0 25.96 0 28 0 C28 5.61 28 11.22 28 17 C29.32 17 30.64 17 32 17 C32 18.98 32 20.96 32 23 C21.33333333 23 10.66666667 23 0 23 C0 15.41 0 7.82 0 0 Z M9 5 C8.01 5.33 7.02 5.66 6 6 C6 6.66 6 7.32 6 8 C7.32 8 8.64 8 10 8 C9.67 7.01 9.34 6.02 9 5 Z M6 13 C6 14.32 6 15.64 6 17 C6.99 17 7.98 17 9 17 C9.33 15.68 9.66 14.36 10 13 C8.68 13 7.36 13 6 13 Z " fill="#4D69B1" transform="translate(128,271)"/>
<path d="M0 0 C7.59 0 15.18 0 23 0 C23 7.59 23 15.18 23 23 C19.37 23 15.74 23 12 23 C11 22 11 22 10.90234375 18.40234375 C10.9090178 16.91403133 10.92097817 15.42573568 10.9375 13.9375 C10.94201172 13.17888672 10.94652344 12.42027344 10.95117188 11.63867188 C10.9629932 9.75908129 10.98092922 7.87953101 11 6 C10.34 6 9.68 6 9 6 C9 11.61 9 17.22 9 23 C7.35 23 5.7 23 4 23 C3 22 3 22 2.90234375 18.40234375 C2.9090178 16.91403133 2.92097817 15.42573568 2.9375 13.9375 C2.94201172 13.17888672 2.94652344 12.42027344 2.95117188 11.63867188 C2.9629932 9.75908129 2.98092922 7.87953101 3 6 C2.01 5.67 1.02 5.34 0 5 C0 3.35 0 1.7 0 0 Z " fill="#193C96" transform="translate(158,271)"/>
<path d="M0 0 C67.32 0 134.64 0 204 0 C204 15.84 204 31.68 204 48 C203.67 48 203.34 48 203 48 C202.67 32.49 202.34 16.98 202 1 C197.545 1.495 197.545 1.495 193 2 C190.51874979 2.08009034 188.03577632 2.11801462 185.55323792 2.11352539 C184.86092243 2.11367425 184.16860694 2.11382311 183.45531219 2.11397648 C181.16622061 2.11328934 178.87721218 2.10548132 176.58813477 2.09765625 C174.93490138 2.09573458 173.2816674 2.09427196 171.62843323 2.0932312 C168.08449267 2.09008323 164.54057628 2.08383478 160.99664497 2.07516479 C155.39595345 2.06160044 149.79526982 2.05574006 144.19456482 2.05102539 C132.31719919 2.03994984 120.43985274 2.02038815 108.5625 2 C95.71489597 1.97797895 82.86729953 1.95742241 70.01968044 1.94658184 C64.44802121 1.94159082 58.87639809 1.93171964 53.30475342 1.91815186 C49.84884206 1.91071572 46.39293573 1.90738149 42.93701744 1.9051857 C41.33012722 1.90330711 39.723238 1.8996932 38.1163559 1.89425278 C35.93017254 1.88708125 33.74406963 1.88599701 31.55787659 1.88647461 C30.33251977 1.884254 29.10716295 1.88203339 27.84467411 1.87974548 C25.05209227 1.80352151 25.05209227 1.80352151 23 3 C21.47851674 3.08372659 19.95344222 3.10730027 18.4296875 3.09765625 C17.53378906 3.09443359 16.63789062 3.09121094 15.71484375 3.08789062 C14.77769531 3.07951172 13.84054688 3.07113281 12.875 3.0625 C11.93011719 3.05798828 10.98523437 3.05347656 10.01171875 3.04882812 C7.67441613 3.03702357 5.33723939 3.02055759 3 3 C2.97051509 6.14581302 2.95304084 9.29158963 2.9375 12.4375 C2.92912109 13.31599609 2.92074219 14.19449219 2.91210938 15.09960938 C2.89328237 20.2017285 3.15369372 25.06997983 3.97875977 30.10961914 C4 32 4 32 2 35 C0.87579755 30.88440172 0.65521111 26.80608205 0.4375 22.5625 C0.39431641 21.83095703 0.35113281 21.09941406 0.30664062 20.34570312 C-0.06086619 13.53807688 0 6.84820184 0 0 Z " fill="#457AB4" transform="translate(27,10)"/>
<path d="M0 0 C0.99 0 1.98 0 3 0 C3.08636719 0.969375 3.17273438 1.93875 3.26171875 2.9375 C5.43849485 24.71898598 13.05691861 44.58946413 29 60 C27.515 60.495 27.515 60.495 26 61 C23.49949744 58.49949744 21.63934738 55.68209189 19.6328125 52.77734375 C17.78233611 50.76306921 16.66691041 50.37521467 14 50 C14 48.68 14 47.36 14 46 C13.34 45.34 12.68 44.68 12 44 C12 43.01 12 42.02 12 41 C11.34 40.67 10.68 40.34 10 40 C9.29094062 38.01463373 8.63305821 36.01089078 8 34 C7.525625 32.9275 7.05125 31.855 6.5625 30.75 C5.26793526 27.81089955 4.30887064 24.84630133 3.40234375 21.765625 C3.00583618 20.42419434 3.00583618 20.42419434 2.60131836 19.05566406 C2.30366577 18.03811035 2.30366577 18.03811035 2 17 C1.97085652 21.20831868 1.95315288 25.41661122 1.9375 29.625 C1.92912109 30.81480469 1.92074219 32.00460938 1.91210938 33.23046875 C1.90727539 34.96103516 1.90727539 34.96103516 1.90234375 36.7265625 C1.89448853 38.31331787 1.89448853 38.31331787 1.88647461 39.93212891 C2.0014026 43.03790343 2.44605405 45.94523268 3 49 C3.19100394 51.31061713 3.35680879 53.62342777 3.5 55.9375 C3.81579048 60.67435715 4.21975073 65.31850438 5 70 C5.66 70 6.32 70 7 70 C7.12375 71.19625 7.2475 72.3925 7.375 73.625 C7.70993372 76.41283066 8.19391212 78.56019058 9.125 81.25 C10.06009363 84.18886568 9.86344922 85.15426596 9 88 C0.33695285 68.1233639 -1.28705147 47.1185743 -1.25 25.6875 C-1.24922455 24.92670135 -1.2484491 24.16590271 -1.24765015 23.38204956 C-1.22445566 15.53458054 -1.09092838 7.7860614 0 0 Z M10 43 C10.66 43.66 11.32 44.32 12 45 C11.01 45.33 10.02 45.66 9 46 C9.33 45.01 9.66 44.02 10 43 Z " fill="#95B74D" transform="translate(26,59)"/>
<path d="M0 0 C3.3125 0.8125 3.3125 0.8125 4.3125 1.8125 C4.45365161 4.48308851 4.35497107 7.13682238 4.3125 9.8125 C2.3325 9.8125 0.3525 9.8125 -1.6875 9.8125 C-1.3575 10.4725 -1.0275 11.1325 -0.6875 11.8125 C0.9625 11.8125 2.6125 11.8125 4.3125 11.8125 C4.6425 8.1825 4.9725 4.5525 5.3125 0.8125 C5.9725 0.8125 6.6325 0.8125 7.3125 0.8125 C7.17203745 3.77117918 7.02537776 6.72932264 6.875 9.6875 C6.81602539 10.95013672 6.81602539 10.95013672 6.75585938 12.23828125 C6.71396484 13.04394531 6.67207031 13.84960938 6.62890625 14.6796875 C6.57391968 15.79512939 6.57391968 15.79512939 6.51782227 16.93310547 C6.3125 18.8125 6.3125 18.8125 5.3125 20.8125 C6.6325 20.8125 7.9525 20.8125 9.3125 20.8125 C9.3125 21.8025 9.3125 22.7925 9.3125 23.8125 C-0.6875 23.8125 -0.6875 23.8125 -5.6875 22.8125 C-8.15961853 19.10432221 -8.05480992 16.1699099 -8.0625 11.875 C-8.08699219 11.15892578 -8.11148438 10.44285156 -8.13671875 9.70507812 C-8.15617374 6.20642281 -7.94685417 4.1763869 -5.89453125 1.296875 C-3.6875 -0.1875 -3.6875 -0.1875 0 0 Z " fill="#3D5AA7" transform="translate(194.6875,270.1875)"/>
<path d="M0 0 C3.96 0 7.92 0 12 0 C12 7.59 12 15.18 12 23 C8.04 23 4.08 23 0 23 C0 15.41 0 7.82 0 0 Z " fill="#163B97" transform="translate(115,271)"/>
<path d="M0 0 C3.96 0 7.92 0 12 0 C12 6.93 12 13.86 12 21 C13.32 21 14.64 21 16 21 C16 18.36 16 15.72 16 13 C16.66 13 17.32 13 18 13 C18.02689216 14.47906892 18.04634621 15.95827483 18.0625 17.4375 C18.07410156 18.26121094 18.08570313 19.08492188 18.09765625 19.93359375 C18 22 18 22 17 23 C14.5 23.125 14.5 23.125 12 23 C11 22 11 22 10.90234375 18.40234375 C10.9090178 16.91403133 10.92097817 15.42573568 10.9375 13.9375 C10.94201172 13.17888672 10.94652344 12.42027344 10.95117188 11.63867188 C10.9629932 9.75908129 10.98092922 7.87953101 11 6 C10.34 6 9.68 6 9 6 C9 11.61 9 17.22 9 23 C7.35 23 5.7 23 4 23 C3 22 3 22 2.90234375 18.40234375 C2.9090178 16.91403133 2.92097817 15.42573568 2.9375 13.9375 C2.94201172 13.17888672 2.94652344 12.42027344 2.95117188 11.63867188 C2.9629932 9.75908129 2.98092922 7.87953101 3 6 C2.01 5.67 1.02 5.34 0 5 C0 3.35 0 1.7 0 0 Z " fill="#365399" transform="translate(158,271)"/>
<path d="M0 0 C-0.33 5.94 -0.66 11.88 -1 18 C-1.66 18 -2.32 18 -3 18 C-3 18.66 -3 19.32 -3 20 C-3.66 20 -4.32 20 -5 20 C-5 20.66 -5 21.32 -5 22 C-7.19702465 21.62120265 -8.83875922 21.09789619 -10.75 19.9375 C-13.53686817 15.61785433 -12.07868397 9.8461788 -11.125 5.0625 C-10.6328125 2.78515625 -10.6328125 2.78515625 -10 1 C-8 0 -8 0 0 0 Z " fill="#419114" transform="translate(80,272)"/>
<path d="M0 0 C2.97 0 5.94 0 9 0 C9 1.98 9 3.96 9 6 C8.01 6 7.02 6 6 6 C6 6.66 6 7.32 6 8 C6.99 8 7.98 8 9 8 C9 9.65 9 11.3 9 13 C8.01 13 7.02 13 6 13 C6 14.32 6 15.64 6 17 C6.99 17 7.98 17 9 17 C9 16.34 9 15.68 9 15 C10.32 15.33 11.64 15.66 13 16 C13 17.65 13 19.3 13 21 C8.71 21 4.42 21 0 21 C0 14.07 0 7.14 0 0 Z " fill="#1B409C" transform="translate(128,271)"/>
<path d="M0 0 C2.64 0 5.28 0 8 0 C8.33 7.26 8.66 14.52 9 22 C7.35 22 5.7 22 4 22 C3.34 21.34 2.68 20.68 2 20 C0.68 20 -0.64 20 -2 20 C-1.34 13.4 -0.68 6.8 0 0 Z " fill="#0E3699" transform="translate(202,271)"/>
<path d="M0 0 C3.3 0 6.6 0 10 0 C10 1.65 10 3.3 10 5 C8.68 5 7.36 5 6 5 C6 5.99 6 6.98 6 8 C7.32 8 8.64 8 10 8 C10 9.65 10 11.3 10 13 C9.01 13.33 8.02 13.66 7 14 C6.26676204 16.01508358 6.26676204 16.01508358 6 18 C6.99 18 7.98 18 9 18 C9.33 19.32 9.66 20.64 10 22 C6.7 22 3.4 22 0 22 C0 14.74 0 7.48 0 0 Z " fill="#419012" transform="translate(28,271)"/>
<path d="M0 0 C2.97 0 5.94 0 9 0 C10 1 10 1 10.1328125 2.75 C10.11374984 8.24004545 9.69169796 13.55287858 9 19 C7.68 19.33 6.36 19.66 5 20 C5 17.69 5 15.38 5 13 C4.67 15.31 4.34 17.62 4 20 C2.68 20 1.36 20 0 20 C0 13.4 0 6.8 0 0 Z " fill="#419112" transform="translate(82,271)"/>
<path d="M0 0 C2.97 0 5.94 0 9 0 C9 1.65 9 3.3 9 5 C7.68 5.33 6.36 5.66 5 6 C5 6.66 5 7.32 5 8 C6.32 8 7.64 8 9 8 C9 9.65 9 11.3 9 13 C7.68 13 6.36 13 5 13 C5 14.32 5 15.64 5 17 C6.32 17 7.64 17 9 17 C9 18.32 9 19.64 9 21 C6.03 21 3.06 21 0 21 C0 14.07 0 7.14 0 0 Z " fill="#274AA1" transform="translate(224,271)"/>
<path d="M0 0 C1.98 0 3.96 0 6 0 C6 5.61 6 11.22 6 17 C6.99 17 7.98 17 9 17 C9 18.65 9 20.3 9 22 C6.03 22 3.06 22 0 22 C0 14.74 0 7.48 0 0 Z " fill="#0E3598" transform="translate(150,271)"/>
<path d="M0 0 C25.74 0 51.48 0 78 0 C78 0.66 78 1.32 78 2 C68.27311355 2.15377003 58.54615966 2.3019515 48.8190794 2.4429636 C44.30259725 2.50861479 39.7861613 2.57620364 35.26977539 2.64819336 C30.91266958 2.71757336 26.55551599 2.78189931 22.19828224 2.84269524 C20.53445531 2.86680381 18.87065392 2.89274524 17.20688438 2.92053413 C14.87974413 2.95909231 12.55259904 2.99118128 10.2253418 3.02172852 C9.53482224 3.03467453 8.84430267 3.04762054 8.13285828 3.06095886 C5.11654263 3.0943874 2.89064665 2.96354888 0 2 C0 1.34 0 0.68 0 0 Z " fill="#133990" transform="translate(114,107)"/>
<path d="M0 0 C3.3 0 6.6 0 10 0 C11.1671568 3.50147041 11.13357453 6.32670036 11 10 C10.67 10.66 10.34 11.32 10 12 C8.35 12 6.7 12 5 12 C5.66 9.36 6.32 6.72 7 4 C6.01 4.495 6.01 4.495 5 5 C4.68758545 7.71446979 4.48663408 10.33909361 4.375 13.0625 C4.33632813 13.82111328 4.29765625 14.57972656 4.2578125 15.36132812 C4.16326438 17.24047195 4.08053244 19.12020336 4 21 C2.68 21 1.36 21 0 21 C0 14.07 0 7.14 0 0 Z " fill="#428F14" transform="translate(57,271)"/>
<path d="M0 0 C0.33 0 0.66 0 1 0 C1 14.85 1 29.7 1 45 C-13.07007242 43.30188781 -27.04819341 41.48384435 -41 39 C-40.67 38.34 -40.34 37.68 -40 37 C-38.54176788 36.9729957 -37.08339325 36.95360213 -35.625 36.9375 C-34.40683594 36.92009766 -34.40683594 36.92009766 -33.1640625 36.90234375 C-31 37 -31 37 -29 38 C-25.22797091 38.67117667 -21.42333813 39.12715957 -17.625 39.625 C-16.57054687 39.77195313 -15.51609375 39.91890625 -14.4296875 40.0703125 C-13.41390625 40.204375 -12.398125 40.3384375 -11.3515625 40.4765625 C-10.42166504 40.60111816 -9.49176758 40.72567383 -8.53369141 40.85400391 C-6.03147233 40.9981865 -4.31327754 40.964138 -2 40 C-0.92627963 36.77883888 -0.93398518 34.63325961 -1 31.25 C-1.08782677 20.82057078 -0.50605707 10.41454685 0 0 Z " fill="#2A4491" transform="translate(195,107)"/>
<path d="M0 0 C3.09514879 2.83079444 3.75944248 5.07753098 4.6875 9.1875 C4.93886719 10.27417969 5.19023438 11.36085937 5.44921875 12.48046875 C5.63097656 13.31191406 5.81273437 14.14335937 6 15 C4.68 13.68 3.36 12.36 2 11 C1.67 11.33 1.34 11.66 1 12 C1 12.94875 1 13.8975 1 14.875 C1 18 1 18 0 21 C-0.09303627 22.59425556 -0.13069008 24.19209599 -0.1328125 25.7890625 C-0.13410156 26.73136719 -0.13539062 27.67367187 -0.13671875 28.64453125 C-0.13285156 29.62808594 -0.12898438 30.61164063 -0.125 31.625 C-0.12886719 32.58535156 -0.13273437 33.54570312 -0.13671875 34.53515625 C-0.12960604 39.77722453 0.12520997 44.87442841 0.77734375 50.07519531 C1.19918025 53.72186088 1.05817292 57.33510632 1 61 C-3.31391961 56.68608039 -2.16065519 49.13119857 -2.16796875 43.359375 C-2.17129715 42.43715149 -2.17462555 41.51492798 -2.17805481 40.5647583 C-2.18310285 38.6182098 -2.18546379 36.6716527 -2.18530273 34.72509766 C-2.18748256 31.77361486 -2.20564267 28.82251021 -2.22460938 25.87109375 C-2.22754521 23.97135543 -2.22952873 22.07161535 -2.23046875 20.171875 C-2.23765427 19.30173767 -2.24483978 18.43160034 -2.25224304 17.53509521 C-2.23010909 11.48640342 -1.38101962 5.8852705 0 0 Z " fill="#84AA45" transform="translate(27,150)"/>
<path d="M0 0 C2.31 0 4.62 0 7 0 C8.17426264 2.34852528 8.11508173 3.73774065 8.09765625 6.3515625 C8.09443359 7.20234375 8.09121094 8.053125 8.08789062 8.9296875 C8.07951172 9.81914062 8.07113281 10.70859375 8.0625 11.625 C8.05798828 12.5221875 8.05347656 13.419375 8.04882812 14.34375 C8.03702591 16.56256648 8.02056155 18.78125018 8 21 C7.01 21 6.02 21 5 21 C5 19.35 5 17.7 5 16 C4.38125 15.773125 3.7625 15.54625 3.125 15.3125 C1 14 1 14 -0.3125 11.9375 C-1.27670626 7.81770963 -0.66741069 4.13975006 0 0 Z " fill="#27499D" transform="translate(141,271)"/>
<path d="M0 0 C-2 2 -2 2 -5.625 2.125 C-6.73875 2.08375 -7.8525 2.0425 -9 2 C-9.33 6.29 -9.66 10.58 -10 15 C-12.97 14.505 -12.97 14.505 -16 14 C-16 16.97 -16 19.94 -16 23 C-19.63 23 -23.26 23 -27 23 C-25.68 22.67 -24.36 22.34 -23 22 C-23 14.74 -23 7.48 -23 0 C-22.67 0 -22.34 0 -22 0 C-22 6.93 -22 13.86 -22 21 C-20.68 21 -19.36 21 -18 21 C-18 15.72 -18 10.44 -18 5 C-17.01 4.67 -16.02 4.34 -15 4 C-14.95745644 5.99954746 -14.95919217 8.00041636 -15 10 C-15.33 10.33 -15.66 10.66 -16 11 C-14.68 11.33 -13.36 11.66 -12 12 C-12 8.37 -12 4.74 -12 1 C-7.53763531 -0.80619523 -4.68965706 -1.11658501 0 0 Z " fill="#74AD53" transform="translate(79,271)"/>
<path d="M0 0 C3 0 3 0 4.6875 1.3125 C6 3 6 3 6 6 C6.99 6.33 7.98 6.66 9 7 C8.67 10.3 8.34 13.6 8 17 C7.01 17 6.02 17 5 17 C4.67 14.03 4.34 11.06 4 8 C3.34 8 2.68 8 2 8 C2.185625 8.7425 2.37125 9.485 2.5625 10.25 C2.99203108 12.94990963 2.85122974 14.44631077 2 17 C1.01 17 0.02 17 -1 17 C-1.02691685 14.54159395 -1.04679802 12.08348118 -1.0625 9.625 C-1.07087891 8.92632812 -1.07925781 8.22765625 -1.08789062 7.5078125 C-1.11328125 2.2265625 -1.11328125 2.2265625 0 0 Z " fill="#409110" transform="translate(41,275)"/>
<path d="M0 0 C3.375 0.6875 3.375 0.6875 4.375 1.6875 C4.51615161 4.35808851 4.41747107 7.01182238 4.375 9.6875 C2.395 9.6875 0.415 9.6875 -1.625 9.6875 C-1.955 8.3675 -2.285 7.0475 -2.625 5.6875 C-2.625 9.3175 -2.625 12.9475 -2.625 16.6875 C-3.615 17.0175 -4.605 17.3475 -5.625 17.6875 C-5.87309955 15.0630252 -6.0991699 12.43982855 -6.3125 9.8125 C-6.38533203 9.06613281 -6.45816406 8.31976563 -6.53320312 7.55078125 C-6.69921875 5.3828125 -6.69921875 5.3828125 -6.625 1.6875 C-3.625 -0.3125 -3.625 -0.3125 0 0 Z " fill="#1B3E96" transform="translate(194.625,270.3125)"/>
<path d="M0 0 C2.64 0 5.28 0 8 0 C8.125 2.875 8.125 2.875 8 6 C7.34 6.66 6.68 7.32 6 8 C6 6.68 6 5.36 6 4 C5.01 4 4.02 4 3 4 C2.67 9.61 2.34 15.22 2 21 C3.32 21 4.64 21 6 21 C6 21.66 6 22.32 6 23 C1.05 23 -3.9 23 -9 23 C-9 22.67 -9 22.34 -9 22 C-5.04 21.505 -5.04 21.505 -1 21 C-1 20.01 -1 19.02 -1 18 C-1.99 18 -2.98 18 -4 18 C-3.67 16.68 -3.34 15.36 -3 14 C-3 14.99 -3 15.98 -3 17 C-2.01 17 -1.02 17 0 17 C0 13.37 0 9.74 0 6 C-0.99 6 -1.98 6 -3 6 C-3.33 6.66 -3.66 7.32 -4 8 C-4 7.01 -4 6.02 -4 5 C-2.68 5 -1.36 5 0 5 C0 3.35 0 1.7 0 0 Z " fill="#69A446" transform="translate(38,271)"/>
<path d="M0 0 C2.31 0 4.62 0 7 0 C9.71486934 3.97610786 9.22440753 8.13901977 9.125 12.75 C9.11597656 13.54277344 9.10695312 14.33554687 9.09765625 15.15234375 C9.07417012 17.10169281 9.03830137 19.05088575 9 21 C7.68 21.33 6.36 21.66 5 22 C3.65883586 19.31767173 3.83095979 17.18167741 3.8125 14.1875 C3.79832031 13.14980469 3.78414062 12.11210937 3.76953125 11.04296875 C4.00285573 7.96229467 4.69881114 5.78238408 6 3 C4.35 3 2.7 3 1 3 C0.67 2.01 0.34 1.02 0 0 Z " fill="#153894" transform="translate(213,272)"/>
<path d="M0 0 C0.66 0.33 1.32 0.66 2 1 C1.67 1.66 1.34 2.32 1 3 C1.31975978 4.3366535 1.65549779 5.66950869 2 7 C2.06672519 8.66546076 2.08536549 10.33335997 2.0625 12 C2.05347656 12.845625 2.04445313 13.69125 2.03515625 14.5625 C2.02355469 15.366875 2.01195313 16.17125 2 17 C2 18.32 2 19.64 2 21 C-1 21 -1 21 -2.6875 20 C-5.54012778 15.65313863 -4.08937776 9.89981884 -3.125 5.0625 C-2.6328125 2.78515625 -2.6328125 2.78515625 -2 1 C-1.34 0.67 -0.68 0.34 0 0 Z " fill="#49941C" transform="translate(72,272)"/>
<path d="M0 0 C1.32 0 2.64 0 4 0 C4 6.93 4 13.86 4 21 C2.68 21 1.36 21 0 21 C-0.19620767 18.93831015 -0.38160753 16.87559002 -0.5625 14.8125 C-0.66691406 13.66394531 -0.77132812 12.51539063 -0.87890625 11.33203125 C-0.98859985 8.31368801 -0.74002389 5.91076064 0 3 C-0.66 2.67 -1.32 2.34 -2 2 C-1.34 2 -0.68 2 0 2 C0 1.34 0 0.68 0 0 Z " fill="#103796" transform="translate(123,271)"/>
<path d="M0 0 C1.65 0 3.3 0 5 0 C5 0.99 5 1.98 5 3 C5.66 3 6.32 3 7 3 C6.67 8.94 6.34 14.88 6 21 C4.68 21 3.36 21 2 21 C1.90912109 19.35451172 1.90912109 19.35451172 1.81640625 17.67578125 C1.73195502 16.22134346 1.64730934 14.76691695 1.5625 13.3125 C1.52318359 12.59126953 1.48386719 11.87003906 1.44335938 11.12695312 C1.21814322 7.33292718 0.87160695 3.71348508 0 0 Z " fill="#0E3597" transform="translate(160,271)"/>
<path d="M0 0 C3.3 0 6.6 0 10 0 C10 1.65 10 3.3 10 5 C9.05125 5.28875 8.1025 5.5775 7.125 5.875 C3.94788422 6.76825109 3.94788422 6.76825109 2 9 C1.75660449 11.89883083 1.75660449 11.89883083 1.875 15.125 C1.89304687 16.22070312 1.91109375 17.31640625 1.9296875 18.4453125 C1.95289062 19.28835938 1.97609375 20.13140625 2 21 C4.64 21 7.28 21 10 21 C10 21.33 10 21.66 10 22 C6.7 22 3.4 22 0 22 C0 14.74 0 7.48 0 0 Z " fill="#478C1D" transform="translate(28,271)"/>
<path d="M0 0 C2.57555088 1.90067391 2.98178182 2.88113383 3.4765625 6.109375 C3.52554687 7.31078125 3.57453125 8.5121875 3.625 9.75 C3.86953044 14.570743 4.20694031 19.24164187 5 24 C5.66 24 6.32 24 7 24 C7.12375 25.19625 7.2475 26.3925 7.375 27.625 C7.70993372 30.41283066 8.19391212 32.56019058 9.125 35.25 C10.06009363 38.18886568 9.86344922 39.15426596 9 42 C3.28936949 28.89743659 -0.55295681 14.37687716 0 0 Z " fill="#8BB044" transform="translate(26,105)"/>
<path d="M0 0 C2.97 0 5.94 0 9 0 C9 1.65 9 3.3 9 5 C7.35 4.67 5.7 4.34 4 4 C4 3.01 4 2.02 4 1 C3.67 1.99 3.34 2.98 3 4 C2.34 4 1.68 4 1 4 C1 9.28 1 14.56 1 20 C2.299375 19.731875 3.59875 19.46375 4.9375 19.1875 C5.66839844 19.03667969 6.39929688 18.88585937 7.15234375 18.73046875 C7.76207031 18.48941406 8.37179688 18.24835938 9 18 C9.33 17.01 9.66 16.02 10 15 C10.99 15.33 11.98 15.66 13 16 C13 17.65 13 19.3 13 21 C8.71 21 4.42 21 0 21 C0 14.07 0 7.14 0 0 Z " fill="#0E348F" transform="translate(128,271)"/>
<path d="M0 0 C20.13 0 40.26 0 61 0 C61.495 1.485 61.495 1.485 62 3 C60.40961914 2.76228882 60.40961914 2.76228882 58.78710938 2.51977539 C53.00713337 1.80092057 47.2240179 1.76889065 41.40625 1.68359375 C40.21898315 1.66281265 39.03171631 1.64203156 37.80847168 1.62062073 C34.03903648 1.55556145 30.26953529 1.4964441 26.5 1.4375 C23.93488918 1.39427325 21.36978488 1.35065767 18.8046875 1.30664062 C12.53652683 1.19992509 6.26830143 1.09807996 0 1 C0 0.67 0 0.34 0 0 Z " fill="#3B64A8" transform="translate(139,66)"/>
<path d="M0 0 C2.31 0 4.62 0 7 0 C7.33 1.98 7.66 3.96 8 6 C7.01 6 6.02 6 5 6 C5 7.32 5 8.64 5 10 C3.35 10 1.7 10 0 10 C-1.125 2.25 -1.125 2.25 0 0 Z " fill="#409210" transform="translate(100,272)"/>
<path d="M0 0 C0.66 0 1.32 0 2 0 C3.2039337 3.75399798 3.09877617 7.33217412 3.0625 11.25 C3.05347656 12.51328125 3.04445312 13.7765625 3.03515625 15.078125 C3.02355469 16.04234375 3.01195312 17.0065625 3 18 C2.01 18 1.02 18 0 18 C0 17.34 0 16.68 0 16 C-2.97 15.01 -5.94 14.02 -9 13 C-8.67 11.35 -8.34 9.7 -8 8 C-7.67 8.66 -7.34 9.32 -7 10 C-5.15028304 11.05021103 -5.15028304 11.05021103 -3 12 C-1.68 12.66 -0.36 13.32 1 14 C0.67 9.38 0.34 4.76 0 0 Z " fill="#2D7B25" transform="translate(248,244)"/>
<path d="M0 0 C1.32 0 2.64 0 4 0 C3.67 6.93 3.34 13.86 3 21 C2.01 21 1.02 21 0 21 C0 14.07 0 7.14 0 0 Z " fill="#409011" transform="translate(94,271)"/>
<path d="M0 0 C4.17642274 3.10671228 8.31093701 6.24730074 12.375 9.5 C16.99340938 13.11896302 21.90830343 16.09805185 27 19 C26.34 19.66 25.68 20.32 25 21 C25 20.34 25 19.68 25 19 C24.28328125 18.89816406 23.5665625 18.79632813 22.828125 18.69140625 C14.43564444 16.63965341 5.64222539 9.40845353 0 3 C0 2.01 0 1.02 0 0 Z " fill="#85A945" transform="translate(55,120)"/>
<path d="M0 0 C0.33 0 0.66 0 1 0 C1 6.93 1 13.86 1 21 C3.97 21 6.94 21 10 21 C10 21.66 10 22.32 10 23 C5.38 23 0.76 23 -4 23 C-3.01 22.67 -2.02 22.34 -1 22 C-1.00523682 21.40461426 -1.01047363 20.80922852 -1.01586914 20.19580078 C-1.03661999 17.50554453 -1.04965407 14.81530511 -1.0625 12.125 C-1.07506836 10.71927734 -1.07506836 10.71927734 -1.08789062 9.28515625 C-1.09111328 8.38925781 -1.09433594 7.49335938 -1.09765625 6.5703125 C-1.10289307 5.74289551 -1.10812988 4.91547852 -1.11352539 4.06298828 C-1 2 -1 2 0 0 Z " fill="#5870B2" transform="translate(223,271)"/>
<path d="M0 0 C0.66 0 1.32 0 2 0 C1.85953745 2.95867918 1.71287776 5.91682264 1.5625 8.875 C1.50352539 10.13763672 1.50352539 10.13763672 1.44335938 11.42578125 C1.40146484 12.23144531 1.35957031 13.03710938 1.31640625 13.8671875 C1.27974854 14.61081543 1.24309082 15.35444336 1.20532227 16.12060547 C1 18 1 18 0 20 C1.32 20 2.64 20 4 20 C4 20.99 4 21.98 4 23 C2.33388095 23.042721 0.66617115 23.04063832 -1 23 C-2 22 -2 22 -2.09765625 19.71484375 C-2.08605469 18.79832031 -2.07445312 17.88179688 -2.0625 16.9375 C-2.05347656 16.01839844 -2.04445312 15.09929687 -2.03515625 14.15234375 C-2.01775391 13.08693359 -2.01775391 13.08693359 -2 12 C-3.32 11.67 -4.64 11.34 -6 11 C-4.35 11 -2.7 11 -1 11 C-0.67 7.37 -0.34 3.74 0 0 Z " fill="#4461A2" transform="translate(200,271)"/>
<path d="M0 0 C0.33 0 0.66 0 1 0 C0.99476318 0.61931396 0.98952637 1.23862793 0.98413086 1.87670898 C0.96311927 4.73029533 0.95026386 7.58386531 0.9375 10.4375 C0.92912109 11.41138672 0.92074219 12.38527344 0.91210938 13.38867188 C0.89438915 18.68701795 1.11034315 23.8252986 1.77514648 29.08178711 C2.20227312 32.72558075 2.05813447 36.33752814 2 40 C-1.95275323 36.04724677 -1.12807228 29.9671973 -1.1328125 24.66796875 C-1.13376923 23.99075272 -1.13472595 23.31353668 -1.13571167 22.61579895 C-1.13638789 21.19642035 -1.13457281 19.77703856 -1.13037109 18.35766602 C-1.12497284 16.17652572 -1.13035619 13.99558744 -1.13671875 11.81445312 C-1.13605869 10.43229121 -1.13477902 9.05012942 -1.1328125 7.66796875 C-1.13168457 6.41266357 -1.13055664 5.1573584 -1.12939453 3.86401367 C-1 1 -1 1 0 0 Z " fill="#75A533" transform="translate(26,171)"/>
<path d="M0 0 C0.99 0.33 1.98 0.66 3 1 C2.67 3.64 2.34 6.28 2 9 C1.34 9 0.68 9 0 9 C0 9.66 0 10.32 0 11 C-0.99 10.67 -1.98 10.34 -3 10 C-3 9.34 -3 8.68 -3 8 C-3.99 7.67 -4.98 7.34 -6 7 C-6 5.35 -6 3.7 -6 2 C-5.01 1.67 -4.02 1.34 -3 1 C-2.67 1.99 -2.34 2.98 -2 4 C-1.34 4.33 -0.68 4.66 0 5 C0 3.35 0 1.7 0 0 Z " fill="#419111" transform="translate(105,283)"/>
<path d="M0 0 C0.99 0 1.98 0 3 0 C3 0.66 3 1.32 3 2 C2.34 2 1.68 2 1 2 C1 3.32 1 4.64 1 6 C2.32 6 3.64 6 5 6 C5 7.32 5 8.64 5 10 C2.03 10 -0.94 10 -4 10 C-4 7.36 -4 4.72 -4 2 C-3.01 2.495 -3.01 2.495 -2 3 C-1.34 2.01 -0.68 1.02 0 0 Z " fill="#113695" transform="translate(228,282)"/>
<path d="M0 0 C0.33 0 0.66 0 1 0 C1 5.61 1 11.22 1 17 C1.99 17 2.98 17 4 17 C4 18.65 4 20.3 4 22 C1.03 22 -1.94 22 -5 22 C-5 17.38 -5 12.76 -5 8 C-4.67 8 -4.34 8 -4 8 C-3.67 11.63 -3.34 15.26 -3 19 C-2.01 19 -1.02 19 0 19 C0 12.73 0 6.46 0 0 Z " fill="#1B3B8D" transform="translate(155,271)"/>
<path d="M0 0 C2.64 0 5.28 0 8 0 C8 1.32 8 2.64 8 4 C7.34 4 6.68 4 6 4 C6 5.32 6 6.64 6 8 C5.34 8 4.68 8 4 8 C4 9.98 4 11.96 4 14 C3.34 14 2.68 14 2 14 C2 11.36 2 8.72 2 6 C1.34 5.67 0.68 5.34 0 5 C0 3.35 0 1.7 0 0 Z " fill="#1B429F" transform="translate(202,271)"/>
<path d="M0 0 C0.99 0 1.98 0 3 0 C4.32421875 1.65234375 4.32421875 1.65234375 5.6875 3.9375 C8.95349124 9.12030726 12.83339302 13.52671383 17 18 C16.01 18.33 15.02 18.66 14 19 C11.49949744 16.49949744 9.63934738 13.68209189 7.6328125 10.77734375 C5.78233611 8.76306921 4.66691041 8.37521467 2 8 C2 6.68 2 5.36 2 4 C1.06716704 1.79932579 1.06716704 1.79932579 0 0 Z M-2 1 C-1.34 1.66 -0.68 2.32 0 3 C-0.99 3.33 -1.98 3.66 -3 4 C-2.67 3.01 -2.34 2.02 -2 1 Z " fill="#8CAF4E" transform="translate(38,101)"/>
<path d="M0 0 C-0.33 0.66 -0.66 1.32 -1 2 C-14.86 2 -28.72 2 -43 2 C-43 1.67 -43 1.34 -43 1 C-41.95021973 0.97494385 -40.90043945 0.9498877 -39.81884766 0.92407227 C-35.93118676 0.83003733 -32.04370619 0.7298072 -28.15625 0.62768555 C-26.47237358 0.58432183 -24.78845277 0.5426478 -23.10449219 0.50268555 C-20.68671276 0.44501766 -18.26915705 0.3813135 -15.8515625 0.31640625 C-15.0963028 0.29969376 -14.34104309 0.28298126 -13.56289673 0.26576233 C-0.53707506 -0.1050799 -0.53707506 -0.1050799 0 0 Z " fill="#6CA24A" transform="translate(134,258)"/>
<path d="M0 0 C0.33 0 0.66 0 1 0 C1 6.27 1 12.54 1 19 C2.65 19 4.3 19 6 19 C6 16.69 6 14.38 6 12 C6.33 12 6.66 12 7 12 C7.33 13.98 7.66 15.96 8 18 C9.32 18.33 10.64 18.66 12 19 C12 19.66 12 20.32 12 21 C8.04 21 4.08 21 0 21 C0 14.07 0 7.14 0 0 Z " fill="#7488BB" transform="translate(115,273)"/>
<path d="M0 0 C2.31 0 4.62 0 7 0 C9.1951074 5.55233049 8.84284324 8.47147029 7 14 C5.375 12.4375 5.375 12.4375 4 10 C4.8125 6.25 4.8125 6.25 6 3 C4.35 3 2.7 3 1 3 C0.67 2.01 0.34 1.02 0 0 Z " fill="#0D359C" transform="translate(213,272)"/>
<path d="M0 0 C0.66 0 1.32 0 2 0 C2.33 5.94 2.66 11.88 3 18 C1.35 18 -0.3 18 -2 18 C-2.6875 16.3125 -2.6875 16.3125 -3 14 C-2.525625 13.278125 -2.05125 12.55625 -1.5625 11.8125 C0.62486715 7.87523914 0.25930068 4.4081116 0 0 Z " fill="#173991" transform="translate(208,275)"/>
<path d="M0 0 C0.33 0 0.66 0 1 0 C1 7.26 1 14.52 1 22 C-0.98 22.33 -2.96 22.66 -5 23 C-5 22.34 -5 21.68 -5 21 C-4.34 21 -3.68 21 -3 21 C-3 20.34 -3 19.68 -3 19 C-2.34 19 -1.68 19 -1 19 C-1.01160156 18.04738281 -1.02320312 17.09476562 -1.03515625 16.11328125 C-1.04417969 14.85902344 -1.05320312 13.60476563 -1.0625 12.3125 C-1.07410156 11.07113281 -1.08570312 9.82976562 -1.09765625 8.55078125 C-1.01478673 5.53764546 -0.70839449 2.91724661 0 0 Z " fill="#78B05B" transform="translate(80,271)"/>
<path d="M0 0 C2.97 0 5.94 0 9 0 C9 1.65 9 3.3 9 5 C7.02 5 5.04 5 3 5 C3 5.99 3 6.98 3 8 C2.34 8 1.68 8 1 8 C0.67 5.36 0.34 2.72 0 0 Z " fill="#103495" transform="translate(224,271)"/>
<path d="M0 0 C9.68648391 1.90553782 19.34172799 3.95728539 29 6 C29 6.33 29 6.66 29 7 C19.91660076 6.6050696 10.62958535 6.09712112 2 3 C1.34 2.01 0.68 1.02 0 0 Z " fill="#74A345" transform="translate(80,206)"/>
<path d="M0 0 C1.65 0 3.3 0 5 0 C5.05399736 1.45792884 5.09279177 2.91642712 5.125 4.375 C5.14820313 5.18710937 5.17140625 5.99921875 5.1953125 6.8359375 C5 9 5 9 3 11 C2.01 11 1.02 11 0 11 C0 10.34 0 9.68 0 9 C-0.66 9 -1.32 9 -2 9 C-2 8.34 -2 7.68 -2 7 C-1.01 6.67 -0.02 6.34 1 6 C0.67 4.02 0.34 2.04 0 0 Z " fill="#153A96" transform="translate(193,283)"/>
<path d="M0 0 C0.33 0 0.66 0 1 0 C1 5.28 1 10.56 1 16 C2.32 16 3.64 16 5 16 C5 13.36 5 10.72 5 8 C5.66 8 6.32 8 7 8 C7.02689216 9.47906892 7.04634621 10.95827483 7.0625 12.4375 C7.07410156 13.26121094 7.08570313 14.08492188 7.09765625 14.93359375 C7 17 7 17 6 18 C3.5 18.125 3.5 18.125 1 18 C0 17 0 17 -0.09765625 13.18359375 C-0.09098089 11.60153318 -0.07901875 10.01948841 -0.0625 8.4375 C-0.05798828 7.63119141 -0.05347656 6.82488281 -0.04882812 5.99414062 C-0.03700518 3.99606244 -0.01906914 1.99802217 0 0 Z " fill="#8D9ECC" transform="translate(169,276)"/>
<path d="M0 0 C1.98 0 3.96 0 6 0 C6 1.32 6 2.64 6 4 C5.34 4 4.68 4 4 4 C4 4.66 4 5.32 4 6 C3.01 6 2.02 6 1 6 C1 7.65 1 9.3 1 11 C0.34 10.34 -0.32 9.68 -1 9 C-0.9765625 6.8359375 -0.9765625 6.8359375 -0.625 4.375 C-0.51414063 3.55773437 -0.40328125 2.74046875 -0.2890625 1.8984375 C-0.19367188 1.27195312 -0.09828125 0.64546875 0 0 Z " fill="#1136A1" transform="translate(141,271)"/>
<path d="M0 0 C0.49628906 0.37511719 0.99257813 0.75023437 1.50390625 1.13671875 C4.96909229 3.74711507 8.44462525 6.32591889 12 8.8125 C12.99 9.534375 13.98 10.25625 15 11 C15 11.33 15 11.66 15 12 C12.3125 12.3125 12.3125 12.3125 9 12 C6.125 9.625 6.125 9.625 4 7 C4 6.34 4 5.68 4 5 C3.34 5 2.68 5 2 5 C2 4.34 2 3.68 2 3 C1.34 3 0.68 3 0 3 C0 2.01 0 1.02 0 0 Z " fill="#719E37" transform="translate(45,185)"/>
<path d="M0 0 C2.71382568 0.63621789 5.28487899 1.42249445 7.890625 2.41015625 C8.59960938 2.67763672 9.30859375 2.94511719 10.0390625 3.22070312 C10.76867187 3.49849609 11.49828125 3.77628906 12.25 4.0625 C12.99507812 4.34416016 13.74015625 4.62582031 14.5078125 4.91601562 C16.33929393 5.6086913 18.16974923 6.30407907 20 7 C16.25 9 16.25 9 14 9 C14 8.34 14 7.68 14 7 C12.989375 6.731875 11.97875 6.46375 10.9375 6.1875 C7.12672558 5.1064844 3.61124792 3.62137662 0 2 C0 1.34 0 0.68 0 0 Z " fill="#7BA542" transform="translate(88,143)"/>
<path d="M0 0 C2.4453708 0.38419838 3.69110368 0.65872644 5.37890625 2.5234375 C5.96478516 3.43996094 5.96478516 3.43996094 6.5625 4.375 C7.83472342 6.33547544 8.96944298 7.97038209 10.65234375 9.6015625 C12 11 12 11 12 13 C11.34 13 10.68 13 10 13 C10 12.34 10 11.68 10 11 C9.01 10.67 8.02 10.34 7 10 C7 9.34 7 8.68 7 8 C6.34 8 5.68 8 5 8 C3.7109375 6.50390625 3.7109375 6.50390625 2.375 4.5625 C1.92898437 3.92441406 1.48296875 3.28632813 1.0234375 2.62890625 C0 1 0 1 0 0 Z " fill="#7EA746" transform="translate(48,169)"/>
<path d="M0 0 C1.32 0 2.64 0 4 0 C3.67 0.66 3.34 1.32 3 2 C2.34 1.67 1.68 1.34 1 1 C1 4.63 1 8.26 1 12 C0.01 12.33 -0.98 12.66 -2 13 C-2.05391993 11.20866022 -2.09275571 9.41686101 -2.125 7.625 C-2.14820313 6.62726563 -2.17140625 5.62953125 -2.1953125 4.6015625 C-2 2 -2 2 0 0 Z " fill="#12369A" transform="translate(191,275)"/>
<path d="M0 0 C4.29 0 8.58 0 13 0 C13 0.66 13 1.32 13 2 C13.99 2.33 14.98 2.66 16 3 C13.51979503 2.88658509 11.04155031 2.75985314 8.5625 2.625 C7.85544922 2.5940625 7.14839844 2.563125 6.41992188 2.53125 C4.60760812 2.42719371 2.80182012 2.22080108 1 2 C0.67 1.34 0.34 0.68 0 0 Z " fill="#2A4595" transform="translate(133,142)"/>
<path d="M0 0 C0.66 0 1.32 0 2 0 C4.35582065 4.62816733 4.23521469 8.75534135 4.125 13.8125 C4.11597656 14.60076172 4.10695312 15.38902344 4.09765625 16.20117188 C4.07422504 18.13424666 4.03835838 20.0671638 4 22 C3.67 22 3.34 22 3 22 C3 16.72 3 11.44 3 6 C2.01 5.67 1.02 5.34 0 5 C0 3.35 0 1.7 0 0 Z " fill="#5971B0" transform="translate(158,271)"/>
<path d="M0 0 C1.56779517 2.95074112 2.70074575 5.87119234 3.6875 9.0625 C3.95949219 9.91972656 4.23148438 10.77695313 4.51171875 11.66015625 C5 14 5 14 4 17 C0.89141572 13.89141572 0.11788727 10.11091901 -0.125 5.76171875 C-0.125 3.84069391 -0.06736293 1.9198434 0 0 Z " fill="#9DB859" transform="translate(29,71)"/>
<path d="M0 0 C0.33 0.66 0.66 1.32 1 2 C3.30965848 3.05352843 5.6429774 4.05719096 8 5 C4.21180727 6.43410153 1.93478721 5.51009497 -1.75 4.0625 C-3.22726563 3.49208984 -3.22726563 3.49208984 -4.734375 2.91015625 C-5.48203125 2.60980469 -6.2296875 2.30945313 -7 2 C-7 1.67 -7 1.34 -7 1 C-2.25 0 -2.25 0 0 0 Z " fill="#78A847" transform="translate(103,204)"/>
<path d="M0 0 C0.66 0 1.32 0 2 0 C2.86604534 1.76505435 3.71748642 3.53728074 4.5625 5.3125 C5.27599609 6.79169922 5.27599609 6.79169922 6.00390625 8.30078125 C7 11 7 11 6 14 C4.9923048 12.2335343 3.99408286 10.46166177 3 8.6875 C2.443125 7.70136719 1.88625 6.71523437 1.3125 5.69921875 C0 3 0 3 0 0 Z " fill="#82AA43" transform="translate(36,147)"/>
<path d="M0 0 C2.64 0 5.28 0 8 0 C8 1.32 8 2.64 8 4 C5.83125748 3.49396008 4.00032373 3.00016187 2 2 C1.67 2.99 1.34 3.98 1 5 C0.67 5 0.34 5 0 5 C0 3.35 0 1.7 0 0 Z " fill="#2A4CA4" transform="translate(202,271)"/>
<path d="M0 0 C0.99 0 1.98 0 3 0 C5.10770759 2.88834003 6 4.38462395 6 8 C4.68 8 3.36 8 2 8 C2 6.68 2 5.36 2 4 C1.06716704 1.79932579 1.06716704 1.79932579 0 0 Z M-2 1 C-1.34 1.66 -0.68 2.32 0 3 C-0.99 3.33 -1.98 3.66 -3 4 C-2.67 3.01 -2.34 2.02 -2 1 Z " fill="#7FAB2A" transform="translate(38,101)"/>
<path d="M0 0 C0.99 0 1.98 0 3 0 C3.33 1.98 3.66 3.96 4 6 C2.35 6.33 0.7 6.66 -1 7 C-0.67 4.69 -0.34 2.38 0 0 Z " fill="#47911C" transform="translate(104,272)"/>
<path d="M0 0 C0.66 0 1.32 0 2 0 C2.33 3.63 2.66 7.26 3 11 C2.34 11 1.68 11 1 11 C-1.42857143 3.57142857 -1.42857143 3.57142857 0 0 Z " fill="#478E3A" transform="translate(247,233)"/>
<path d="M0 0 C0.99 0.33 1.98 0.66 3 1 C3 3.64 3 6.28 3 9 C2.01 9 1.02 9 0 9 C0 6.03 0 3.06 0 0 Z " fill="#0E3497" transform="translate(146,283)"/>
<path d="M0 0 C2.64 0 5.28 0 8 0 C8 1.98 8 3.96 8 6 C7.34 6 6.68 6 6 6 C5.67 6.66 5.34 7.32 5 8 C5 5.69 5 3.38 5 1 C3.35 1 1.7 1 0 1 C0 0.67 0 0.34 0 0 Z " fill="#17357F" transform="translate(115,271)"/>
<path d="M0 0 C1.65 0 3.3 0 5 0 C5 1.65 5 3.3 5 5 C4.01 5 3.02 5 2 5 C2 4.34 2 3.68 2 3 C1.01 3.33 0.02 3.66 -1 4 C-0.67 2.68 -0.34 1.36 0 0 Z " fill="#214599" transform="translate(165,271)"/>
<path d="M0 0 C2.61500768 2.36595933 4.38999603 4.86049226 6 8 C5.67 8.66 5.34 9.32 5 10 C1.95623822 7.97082548 1.25189126 7.27417715 0 4 C0 2.68 0 1.36 0 0 Z " fill="#7FA845" transform="translate(35,170)"/>
<path d="M0 0 C4.3177458 0.50797009 8.03302114 1.19682779 12 3 C12 3.33 12 3.66 12 4 C3.42857143 3.14285714 3.42857143 3.14285714 0 1 C0 0.67 0 0.34 0 0 Z " fill="#75A448" transform="translate(193,168)"/>
<path d="M0 0 C0.99 0 1.98 0 3 0 C3 2.97 3 5.94 3 9 C2.01 8.34 1.02 7.68 0 7 C-0.1875 3.375 -0.1875 3.375 0 0 Z " fill="#AFBD86" transform="translate(26,59)"/>
<path d="M0 0 C1.32 0 2.64 0 4 0 C4 0.66 4 1.32 4 2 C5.32 2 6.64 2 8 2 C8.33 3.32 8.66 4.64 9 6 C5.06326356 4.68775452 2.77280706 3.08089673 0 0 Z " fill="#80A948" transform="translate(66,188)"/>
<path d="M0 0 C5.75 1.625 5.75 1.625 8 5 C7.01 5.495 7.01 5.495 6 6 C6 5.34 6 4.68 6 4 C4.68 4.33 3.36 4.66 2 5 C2 4.01 2 3.02 2 2 C1.34 2 0.68 2 0 2 C0 1.34 0 0.68 0 0 Z " fill="#629836" transform="translate(210,175)"/>
<path d="M0 0 C2.09350689 3.4019487 2.17942163 6.05272412 2 10 C1.01 9.67 0.02 9.34 -1 9 C-1.125 2.25 -1.125 2.25 0 0 Z " fill="#86A732" transform="translate(27,64)"/>
<path d="M0 0 C2 0 2 0 3.5625 1.25 C5.14533111 3.17692483 5.5806825 4.56795851 6 7 C5.01 7 4.02 7 3 7 C0 2.77777778 0 2.77777778 0 0 Z " fill="#77A23A" transform="translate(43,161)"/>
<path d="M0 0 C2.31 0 4.62 0 7 0 C7.33 0.99 7.66 1.98 8 3 C5.36 2.67 2.72 2.34 0 2 C0 1.34 0 0.68 0 0 Z " fill="#4E70B1" transform="translate(193,66)"/>
<path d="M0 0 C1.485 0.99 1.485 0.99 3 2 C3.40843923 4.71203652 3.13336867 7.2437142 3 10 C0.70366176 6.55549263 0.45983515 4.06187717 0 0 Z " fill="#486AAC" transform="translate(33,60)"/>
<path d="M0 0 C0.99 0.495 0.99 0.495 2 1 C2 4.33333333 2 7.66666667 2 11 C1.01 11.495 1.01 11.495 0 12 C0 8.04 0 4.08 0 0 Z " fill="#2D4B9A" transform="translate(192,276)"/>
<path d="M0 0 C1.98 0 3.96 0 6 0 C5.67 0.66 5.34 1.32 5 2 C4.34 1.67 3.68 1.34 3 1 C2.67 2.32 2.34 3.64 2 5 C1.34 4.67 0.68 4.34 0 4 C0 2.68 0 1.36 0 0 Z " fill="#0C3793" transform="translate(141,271)"/>
<path d="M0 0 C1.5 1.125 1.5 1.125 3 3 C3.1875 6.1875 3.1875 6.1875 3 9 C0.90250005 6.64031256 0.03094296 5.45383006 -0.1875 2.25 C-0.125625 1.5075 -0.06375 0.765 0 0 Z " fill="#7DAB49" transform="translate(28,211)"/>
<path d="M0 0 C4.75 0.875 4.75 0.875 7 2 C7 2.66 7 3.32 7 4 C7.66 4 8.32 4 9 4 C8.67 4.66 8.34 5.32 8 6 C6.66402348 5.19185349 5.331275 4.37836819 4 3.5625 C3.2575 3.11003906 2.515 2.65757812 1.75 2.19140625 C1.1725 1.79824219 0.595 1.40507812 0 1 C0 0.67 0 0.34 0 0 Z " fill="#7DA74A" transform="translate(75,194)"/>
<path d="M0 0 C4.8 3.44615385 4.8 3.44615385 5.8125 6.25 C5.874375 6.8275 5.93625 7.405 6 8 C5.34 8 4.68 8 4 8 C4 7.34 4 6.68 4 6 C3.01 5.67 2.02 5.34 1 5 C0.67 3.35 0.34 1.7 0 0 Z " fill="#729D2F" transform="translate(54,174)"/>
</svg>
